<svg width="52" height="52" viewBox="0 0 52 52" fill="none" xmlns="http://www.w3.org/2000/svg">
<g clip-path="url(#clip0_2_237)">
<path d="M26.0185 51.0655H26.0165C12.196 51.0655 0.952 39.8215 0.951 26.0005C0.951 12.18 12.1945 0.935974 26.0155 0.935974C39.836 0.935974 51.0795 12.18 51.0795 26.0005C51.0795 39.8215 39.8375 51.0655 26.0185 51.0655ZM26.0155 2.93597C13.2975 2.93597 2.951 13.283 2.951 26.0005C2.952 38.7185 13.299 49.0655 26.0165 49.0655H26.0185C38.7345 49.0655 49.0795 38.719 49.0795 26.0005C49.0795 13.283 38.733 2.93597 26.0155 2.93597Z" fill="black"/>
<path d="M26.018 43.75H26.0165C16.2295 43.75 8.2665 35.787 8.2655 26C8.2655 16.213 16.228 8.25049 26.0155 8.25049C35.803 8.25049 43.7655 16.213 43.7655 26C43.7655 35.787 35.804 43.75 26.018 43.75ZM26.0155 10.2505C17.331 10.2505 10.2655 17.3155 10.2655 26C10.2665 34.685 17.3325 41.75 26.0165 41.75H26.018C34.701 41.75 41.7655 34.6845 41.7655 26C41.7655 17.3155 34.7 10.2505 26.0155 10.2505Z" fill="black"/>
<path d="M26.0155 29.117C25.1835 29.117 24.401 28.794 23.8125 28.207C22.596 26.988 22.5965 25.01 23.8115 23.796C24.4005 23.207 25.183 22.883 26.0155 22.883C26.848 22.883 27.6305 23.207 28.2195 23.7965C29.4345 25.0145 29.4335 26.9925 28.2185 28.206C27.63 28.794 26.8475 29.117 26.0155 29.117ZM26.0155 24.883C25.717 24.883 25.437 24.999 25.2255 25.2105C24.79 25.646 24.7905 26.3555 25.2265 26.7925C25.645 27.2105 26.383 27.213 26.805 26.791C27.2405 26.356 27.24 25.6465 26.8045 25.2095C26.594 24.9995 26.314 24.883 26.0155 24.883Z" fill="black"/>
<path d="M27.5125 25.5035C27.2565 25.5035 27.001 25.406 26.8055 25.2105C26.415 24.82 26.415 24.187 26.8055 23.7965L33.707 16.895C34.0975 16.5045 34.7305 16.5045 35.121 16.895C35.5115 17.2855 35.5115 17.9185 35.121 18.309L28.2195 25.2105C28.0245 25.406 27.7685 25.5035 27.5125 25.5035Z" fill="black"/>
<path d="M24.508 25.493C24.252 25.493 23.9965 25.3955 23.801 25.2L18.676 20.0745C18.2855 19.684 18.2855 19.051 18.676 18.66C19.0665 18.27 19.6995 18.2695 20.09 18.66L25.215 23.786C25.6055 24.1765 25.6055 24.8095 25.215 25.2C25.0195 25.396 24.7635 25.493 24.508 25.493Z" fill="black"/>
</g>
<defs>
<clipPath id="clip0_2_237">
<rect width="52" height="52" fill="white"/>
</clipPath>
</defs>
</svg>
