<svg width="20" height="20" viewBox="0 0 20 20" fill="none" xmlns="http://www.w3.org/2000/svg">
<path d="M0.120002 5.81001C0.878753 9.25311 2.60661 12.4073 5.09966 14.9004C7.59271 17.3934 10.7469 19.1213 14.19 19.88C15.2723 20.098 16.397 19.9068 17.3465 19.3434C18.2959 18.78 19.0027 17.8844 19.33 16.83L19.84 15.23L14.84 12.74L12.46 15.12C10.769 14.3912 9.22661 13.3573 7.91 12.07C6.64055 10.7493 5.62377 9.20715 4.91 7.52001L7.26 5.14001L4.77 0.140015L3.17 0.650015C2.11148 0.977556 1.21278 1.6874 0.648957 2.64127C0.0851378 3.59514 -0.103424 4.72473 0.120002 5.81001V5.81001Z" fill="black"/>
</svg>
