<svg width="64" height="64" viewBox="0 0 64 64" fill="none" xmlns="http://www.w3.org/2000/svg">
<path d="M50.5802 39.6457C49.2699 38.2814 47.6895 37.552 46.0146 37.552C44.3531 37.552 42.7592 38.2679 41.395 39.6322L37.1266 43.8871C36.7754 43.698 36.4242 43.5224 36.0865 43.3468C35.6002 43.1036 35.1409 42.874 34.7492 42.6309C30.751 40.0914 27.1174 36.782 23.6324 32.5001C21.944 30.3659 20.8093 28.5694 19.9854 26.7459C21.093 25.7328 22.1196 24.6792 23.1191 23.6661C23.4974 23.2879 23.8756 22.8962 24.2538 22.518C27.0904 19.6814 27.0904 16.0073 24.2538 13.1707L20.5662 9.48311C20.1475 9.06438 19.7152 8.63213 19.31 8.19989C18.4995 7.36241 17.6485 6.49792 16.7705 5.68747C15.4603 4.39073 13.8934 3.70184 12.2455 3.70184C10.5976 3.70184 9.00366 4.39073 7.65289 5.68747C7.63938 5.70097 7.63938 5.70097 7.62588 5.71448L3.03328 10.3476C1.3043 12.0766 0.318243 14.1838 0.102121 16.6287C-0.222062 20.5729 0.939595 24.247 1.8311 26.6513C4.01934 32.5542 7.28819 38.0247 12.1644 43.8871C18.0808 50.9516 25.1993 56.5302 33.3309 60.4609C36.4377 61.9333 40.5845 63.6758 45.2176 63.9729C45.5013 63.9864 45.7985 63.9999 46.0686 63.9999C49.1889 63.9999 51.8094 62.8788 53.8625 60.65C53.876 60.623 53.903 60.6095 53.9166 60.5825C54.619 59.7315 55.4294 58.9616 56.2804 58.1376C56.8612 57.5838 57.4556 57.003 58.0364 56.3951C59.3736 55.0038 60.076 53.3829 60.076 51.7215C60.076 50.0465 59.3601 48.4391 57.9959 47.0884L50.5802 39.6457ZM55.4159 53.8692C55.4024 53.8692 55.4024 53.8827 55.4159 53.8692C54.8891 54.4365 54.3488 54.9498 53.768 55.5171C52.89 56.3546 51.9985 57.2326 51.161 58.2187C49.7967 59.6775 48.1893 60.3664 46.0821 60.3664C45.8795 60.3664 45.6634 60.3664 45.4608 60.3529C41.449 60.0962 37.7209 58.5293 34.9248 57.1921C27.2795 53.491 20.5662 48.2365 14.9875 41.5773C10.3814 36.0256 7.30169 30.8927 5.26204 25.3816C4.00583 22.0182 3.54657 19.3977 3.74918 16.9258C3.88426 15.3454 4.4921 14.0352 5.61324 12.9141L10.2193 8.30795C10.8812 7.6866 11.5836 7.34891 12.2725 7.34891C13.1235 7.34891 13.8124 7.8622 14.2446 8.29444C14.2581 8.30795 14.2716 8.32146 14.2851 8.33496C15.1091 9.1049 15.8926 9.90185 16.7165 10.7528C17.1353 11.1851 17.5675 11.6173 17.9997 12.0631L21.6873 15.7507C23.1191 17.1825 23.1191 18.5062 21.6873 19.938C21.2956 20.3297 20.9174 20.7215 20.5257 21.0997C19.391 22.2613 18.3104 23.3419 17.1353 24.3955C17.1082 24.4226 17.0812 24.4361 17.0677 24.4631C15.9061 25.6247 16.1222 26.7594 16.3653 27.5293C16.3788 27.5698 16.3923 27.6104 16.4058 27.6509C17.3649 29.9742 18.7156 32.1624 20.7688 34.7694L20.7823 34.7829C24.5104 39.3755 28.4411 42.955 32.7771 45.6971C33.3309 46.0483 33.8982 46.3319 34.4385 46.6021C34.9248 46.8452 35.3841 47.0749 35.7758 47.318C35.8298 47.345 35.8839 47.3855 35.9379 47.4126C36.3971 47.6422 36.8294 47.7502 37.2751 47.7502C38.3963 47.7502 39.0987 47.0478 39.3283 46.8182L43.9479 42.1986C44.4072 41.7393 45.1366 41.1855 45.9876 41.1855C46.825 41.1855 47.5139 41.7123 47.9327 42.1716C47.9462 42.1851 47.9462 42.1851 47.9597 42.1986L55.4024 49.6413C56.7937 51.0191 56.7937 52.4374 55.4159 53.8692Z" fill="black"/>
<path d="M34.5871 15.2239C38.1261 15.8182 41.3409 17.4932 43.9074 20.0596C46.4738 22.6261 48.1353 25.8409 48.7431 29.3799C48.8917 30.2714 49.6616 30.8927 50.5396 30.8927C50.6477 30.8927 50.7423 30.8792 50.8503 30.8657C51.8499 30.7036 52.5118 29.7581 52.3497 28.7585C51.6203 24.4766 49.5941 20.5729 46.5009 17.4797C43.4076 14.3864 39.5039 12.3603 35.222 11.6309C34.2224 11.4688 33.2904 12.1306 33.1148 13.1167C32.9392 14.1028 33.5876 15.0618 34.5871 15.2239Z" fill="black"/>
<path d="M63.9257 28.2318C62.7235 21.1808 59.4007 14.7646 54.2948 9.65875C49.1889 4.55286 42.7728 1.22998 35.7218 0.0278007C34.7357 -0.147799 33.8037 0.527583 33.6281 1.51364C33.466 2.51321 34.1279 3.44523 35.1274 3.62083C41.422 4.68794 47.1627 7.67312 51.7283 12.2252C56.2939 16.7908 59.2656 22.5315 60.3327 28.8261C60.4813 29.7176 61.2512 30.3389 62.1292 30.3389C62.2373 30.3389 62.3318 30.3254 62.4399 30.3119C63.4259 30.1633 64.1013 29.2178 63.9257 28.2318Z" fill="black"/>
</svg>
