<svg width="48" height="49" viewBox="0 0 48 49" fill="none" xmlns="http://www.w3.org/2000/svg">
<g clip-path="url(#clip0_4_91)">
<path d="M23.9905 27.3347C24.5089 27.3347 24.9298 26.9138 24.9298 26.3953C24.9298 25.8769 24.5089 25.456 23.9905 25.456C23.472 25.456 23.0511 25.8769 23.0511 26.3953C23.0511 26.9138 23.472 27.3347 23.9905 27.3347Z" fill="black"/>
<path d="M23.454 47.825C23.6173 47.9416 23.8084 48 24 48C24.1915 48 24.3827 47.9416 24.546 47.825C34.1165 40.9887 43.726 37.9891 43.726 23.9229V6.50853C43.726 6.02015 43.3514 5.61323 42.8648 5.5725L40.4233 5.36849C34.8258 4.90212 29.319 3.06235 24.4979 0.0487714C24.1934 -0.141664 23.8066 -0.141664 23.5021 0.0487714C18.6806 3.06235 13.1738 4.90212 7.5763 5.36886L5.13514 5.5725C4.64822 5.61323 4.27396 6.02015 4.27396 6.50853V23.9229C4.27396 38.3857 15.233 41.9526 23.454 47.825ZM6.15263 7.37265L7.73262 7.24092C13.435 6.76538 19.0461 4.93808 24 1.94762C28.9535 4.93808 34.5649 6.76538 40.267 7.24092L41.8473 7.37265V23.9229C41.8473 36.6065 33.3959 39.328 23.9985 45.9111C15.7511 40.1863 6.15263 36.9375 6.15263 23.9229V7.37265Z" fill="black"/>
<path d="M23.4525 40.9972C23.7938 41.2302 24.2235 41.2133 24.5474 40.9726C33.051 35.0867 38.09 33.1501 38.09 23.924V11.6037C38.09 11.1388 37.7499 10.7436 37.2901 10.6746C32.7945 9.99912 28.4681 8.60003 24.4308 6.51624C24.1402 6.36617 23.7941 6.38525 23.5278 6.53716C19.5018 8.60993 15.1893 10.0021 10.7099 10.6746C10.2501 10.7436 9.90997 11.1384 9.90997 11.6037V23.924C9.90997 33.237 15.4289 35.5226 23.4525 40.9972ZM11.7886 12.4047C15.6953 11.7439 19.4732 10.5554 23.0511 8.86568V22.6379C23.0511 23.1568 23.4716 23.5773 23.9905 23.5773C24.5093 23.5773 24.9298 23.1568 24.9298 22.6379V8.85688C28.5128 10.5506 32.2977 11.7424 36.2113 12.4047V23.924C36.2113 31.5598 32.6345 33.2245 24.9298 38.4353V30.1526C24.9298 29.6338 24.5093 29.2133 23.9905 29.2133C23.4716 29.2133 23.0511 29.6338 23.0511 30.1526V38.4624C15.8524 33.6704 11.7886 31.6225 11.7886 23.924V12.4047Z" fill="black"/>
</g>
<defs>
<clipPath id="clip0_4_91">
<rect width="48" height="48.0938" fill="white"/>
</clipPath>
</defs>
</svg>
