<svg width="196" height="52" viewBox="0 0 196 52" fill="none" xmlns="http://www.w3.org/2000/svg">
<path d="M51.757 0.672852H0.0957031V51.9413H51.757V0.672852Z" fill="#ED1A3A"/>
<path d="M43.4136 5.78047C42.2264 5.78047 41.3273 6.56213 40.8794 7.50146L34.3746 18.1291C33.9235 19.112 33.5943 20.2162 33.5943 20.9471C33.5943 21.6003 33.6845 22.1774 33.9257 22.7093L40.9622 39.3912H13.638C12.6544 39.3912 11.8426 38.4108 11.8426 37.5057V8.76992C11.6358 4.84151 5.94647 4.84362 5.82117 8.89334L5.94546 39.3912C5.94546 42.7069 8.5284 45.3633 11.8426 45.3633H49.0967L40.0162 22.3047C39.7656 21.4463 39.654 20.6677 40.2648 19.6444L46.2724 9.94925C46.357 9.74707 46.4796 8.89222 46.4796 8.64651C46.3605 6.88603 44.9705 5.70271 43.4136 5.78047ZM28.6639 5.79418C27.2026 5.8039 25.743 6.80572 25.743 8.76992V29.3327C25.743 32.3187 21.6964 32.0729 21.6964 29.3327V8.76992C21.6964 4.84151 15.8408 4.84151 15.8408 8.76992V29.4972C15.8408 34.2375 19.4074 37.3891 23.6645 37.3891C28.0374 37.3891 31.5917 34.2375 31.5917 29.4972V8.76992C31.5917 6.76684 30.1252 5.78446 28.6639 5.79418Z" fill="white"/>
<path d="M61.8781 6.69775V20.2621C61.8781 23.6525 61.5304 25.5374 58.7487 25.5374C58.2287 25.5374 57.881 25.5374 57.361 25.3507V31.1889C58.401 31.5684 59.0964 31.5684 59.9672 31.5684C67.786 31.5684 68.1337 25.7271 68.1337 22.3337V12.5391H72.6508V31.1889H78.9032V6.69775H61.8781Z" fill="black"/>
<path d="M80.9895 6.69775L89.5036 24.4083L86.3774 31.1889H93.153L103.23 6.69775H96.4546L92.8053 17.0584L88.4605 6.69775H80.9895Z" fill="black"/>
<path d="M105.141 31.1889H111.397V20.6385L117.825 31.1889H125.816L116.957 18.567L125.643 6.69775H118.172L111.397 17.0584V6.69775H105.141V31.1889Z" fill="black"/>
<path d="M136.068 31.9449C144.407 31.9449 148.229 25.5375 148.229 18.9435C148.229 12.5392 144.407 6.13184 136.068 6.13184C127.902 6.13184 124.08 12.5392 124.08 18.9435C124.08 25.5375 127.902 31.9449 136.068 31.9449ZM136.068 26.1036C133.287 26.1036 130.508 23.6526 130.508 18.9435C130.508 14.2344 133.287 11.9731 136.068 11.9731C139.022 11.9731 141.801 14.2344 141.801 18.9435C141.801 23.6526 139.022 26.1036 136.068 26.1036Z" fill="black"/>
<path d="M151.358 6.69778V31.1889H157.438L166.125 16.4955V31.1889H172.208V6.69778H166.125L157.438 21.3943V6.69778H151.358ZM161.955 5.37897C164.562 5.37897 167.168 4.43653 168.386 1.60919L164.737 0.10376C164.214 1.98865 162.651 2.17528 161.955 2.17528C161.435 2.17528 159.697 1.98865 159.349 0.10376L155.703 1.60919C156.743 4.43653 159.524 5.37897 161.955 5.37897Z" fill="black"/>
<path d="M178.811 6.69775V20.2621C178.811 23.6525 178.46 25.5374 175.682 25.5374C175.162 25.5374 174.814 25.5374 174.291 25.3507V31.1889C175.334 31.5684 176.03 31.5684 176.897 31.5684C184.716 31.5684 185.064 25.7271 185.064 22.3337V12.5391H189.581V31.1889H195.836V6.69775H178.811Z" fill="black"/>
<path d="M57.4111 44.9335H58.2914V40.3893H63.4318V44.9335H64.312V36.0254H63.4318V39.6739H58.2914V36.0254H57.4111V44.9335Z" fill="black"/>
<path d="M66.5518 44.9335H71.3727V44.2181H67.432V40.3022H71.2161V39.5868H67.432V36.7439H71.3727V36.0254H66.5518V44.9335Z" fill="black"/>
<path d="M77.1741 44.9339H78.0449V43.7084H78.4114C81.3121 43.7084 82.5119 42.0039 82.5119 40.2186C82.5119 38.1284 80.955 36.7443 78.4114 36.7443H78.0449V35.6743H77.1741V36.7443H76.8201C74.2609 36.7443 72.7072 38.1284 72.7072 40.2186C72.7072 42.0039 73.9069 43.7084 76.8201 43.7084H77.1741V44.9339ZM78.0449 37.4597C80.955 37.497 81.5941 38.8469 81.5941 40.2186C81.5941 42.3585 80.1625 42.9153 78.0449 42.9899V37.4597ZM77.1741 42.9899C75.0565 42.9153 73.625 42.3585 73.625 40.2186C73.625 38.8469 74.2609 37.497 77.1741 37.4597V42.9899Z" fill="black"/>
<path d="M85.6914 44.9335H86.5372V36.7439H88.9241V36.0254H83.3076V36.7439H85.6914V44.9335Z" fill="black"/>
<path d="M89.9641 44.9335H90.954L93.3409 41.0207H94.099V44.9335H94.9824V36.0254H92.9118C90.1959 36.0254 89.8044 37.8139 89.8044 38.6039C89.8044 40.1093 90.9916 41.0207 92.3887 40.9709L89.9641 44.9335ZM94.099 40.3022H92.8272C92.1067 40.3022 90.6752 40.2182 90.6752 38.5168C90.6752 36.8652 92.1913 36.7439 92.9118 36.7439H94.099V40.3022Z" fill="black"/>
<path d="M97.2346 44.9335H98.1149V40.3893H103.255V44.9335H104.136V36.0254H103.255V39.6739H98.1149V36.0254H97.2346V44.9335Z" fill="black"/>
<path d="M105.42 44.9332H106.303L107.537 42.0406H111.318L112.556 44.9332H113.436L109.411 35.7949L105.42 44.9332ZM107.857 41.3376L109.411 37.6923L111.002 41.3376H107.857Z" fill="black"/>
<path d="M114.454 44.9335H115.444L117.831 41.0207H118.589V44.9335H119.469V36.0254H117.402C114.686 36.0254 114.294 37.8139 114.294 38.6039C114.294 40.1093 115.481 41.0207 116.875 40.9709L114.454 44.9335ZM118.589 40.3022H117.317C116.594 40.3022 115.162 40.2182 115.162 38.5168C115.162 36.8652 116.681 36.7439 117.402 36.7439H118.589V40.3022Z" fill="black"/>
<path d="M124.697 44.9335H125.578V40.6194L129.603 44.9335H130.752L126.408 40.3395L130.68 36.0254H129.603L125.578 40.1809V36.0254H124.697V44.9335Z" fill="black"/>
<path d="M136.432 45.2132C139.101 45.2132 141.29 43.3065 141.29 40.4978C141.29 37.6923 139.101 35.7949 136.432 35.7949C133.8 35.7949 131.611 37.6923 131.611 40.4978C131.611 43.3065 133.8 45.2132 136.432 45.2132ZM136.432 44.4605C134.242 44.4605 132.529 42.8306 132.529 40.4978C132.529 38.165 134.242 36.501 136.432 36.501C138.624 36.501 140.372 38.165 140.372 40.4978C140.372 42.8306 138.624 44.4605 136.432 44.4605Z" fill="black"/>
<path d="M142.502 44.9339H143.348L144.178 38.3586L147.483 45.3352L150.75 38.3586L151.634 44.9339H152.426L151.192 35.6743L147.483 43.6338L143.737 35.6743L142.502 44.9339Z" fill="black"/>
<path d="M154.08 36.0254V44.9335H154.96V36.7439H160.101V44.9335H160.981V36.0254H154.08Z" fill="black"/>
<path d="M162.269 44.9332H163.149L164.383 42.0406H168.167L169.401 44.9332H170.282L166.256 35.7949L162.269 44.9332ZM164.703 41.3376L166.256 37.6923L167.848 41.3376H164.703Z" fill="black"/>
<path d="M171.531 44.9335H172.412V40.3893H177.552V44.9335H178.435V36.0254H177.552V39.6739H172.412V36.0254H171.531V44.9335Z" fill="black"/>
<path d="M180.672 36.0258V45.3352L186.818 37.8858V44.9339H187.686V35.6743L181.555 43.0739V36.0258H180.672Z" fill="black"/>
<path d="M189.669 44.9335H190.658L193.045 41.0207H193.803V44.9335H194.687V36.0254H192.619C189.9 36.0254 189.509 37.8139 189.509 38.6039C189.509 40.1093 190.696 41.0207 192.093 40.9709L189.669 44.9335ZM193.803 40.3022H192.532C191.811 40.3022 190.38 40.2182 190.38 38.5168C190.38 36.8652 191.896 36.7439 192.619 36.7439H193.803V40.3022Z" fill="black"/>
</svg>
