<svg width="54" height="64" viewBox="0 0 54 64" fill="none" xmlns="http://www.w3.org/2000/svg">
<path d="M53.3819 11.3743V7.62425H23.9194V0H7.987V7.62425H0.618126V11.3743H3.91325V60.25H0.618126V64H53.3817V60.25H50.0866V11.3743H53.3819ZM11.737 3.75H20.1694V7.62425H11.737V3.75ZM46.3366 48.0859H7.66337V23.5386H46.3367V48.0859H46.3366ZM7.66337 60.25V51.8359H46.3367V60.25H7.66337ZM46.3366 19.7886H7.66337V11.3743H46.3367V19.7886H46.3366Z" fill="black"/>
<path d="M27 43.7955C30.6031 43.7955 33.5345 40.8641 33.5345 37.261C33.5345 33.1816 28.7731 28.9237 28.2303 28.4515L27 27.3817L25.7696 28.4516C25.2267 28.9237 20.4654 33.1817 20.4654 37.2611C20.4655 40.8641 23.3969 43.7955 27 43.7955ZM26.9953 32.4868C27.272 32.783 27.5736 33.123 27.8758 33.4941C29.0889 34.9841 29.7846 36.357 29.7846 37.2611C29.7846 38.7965 28.5355 40.0456 27.0001 40.0456C25.4648 40.0456 24.2156 38.7965 24.2156 37.2611C24.2155 35.9521 25.5983 33.988 26.9953 32.4868Z" fill="black"/>
</svg>
