<svg width="217" height="112" viewBox="0 0 217 112" fill="none" xmlns="http://www.w3.org/2000/svg">
<g clip-path="url(#clip0_4_180)">
<path fill-rule="evenodd" clip-rule="evenodd" d="M82.7175 83.6602V81.7351H77.8316V83.6602H77.2609V79.5303H77.8316V81.321H82.7175V79.5303H83.2815V83.6602H82.7175Z" fill="#201C26"/>
<path fill-rule="evenodd" clip-rule="evenodd" d="M85.2032 83.6602V79.5303H90.0699V79.9421H85.765V81.321H89.9562V81.7295H85.765V83.2461H90.0699V83.6602H85.2032Z" fill="#201C26"/>
<path fill-rule="evenodd" clip-rule="evenodd" d="M99.9464 81.8391V81.3246C99.9464 80.3429 99.46 79.8487 97.9188 79.8487H96.2414V79.4819H95.6695V79.8487H94.0124C92.4611 79.8487 91.9747 80.2605 91.9747 81.3246V81.8391C91.9747 82.8897 92.5241 83.253 94.0124 83.253H95.6695V83.6592H96.2414V83.253H97.9188C99.3981 83.253 99.9464 82.9089 99.9464 81.8391ZM99.3733 81.8391C99.3733 82.6347 98.9894 82.8445 97.9188 82.8445H96.2414V80.2616H97.9188C98.9354 80.2616 99.3733 80.5009 99.3733 81.302V81.8391ZM95.6695 82.8445H94.0124C92.9407 82.8445 92.532 82.6347 92.532 81.8335V81.284C92.532 80.4941 92.9801 80.2616 94.0124 80.2616H95.6695V82.8445Z" fill="#201C26"/>
<path fill-rule="evenodd" clip-rule="evenodd" d="M104.294 79.9421V83.6602H104.863V79.9421H107.55V79.5303H101.627V79.9421H104.294Z" fill="#201C26"/>
<path fill-rule="evenodd" clip-rule="evenodd" d="M114.722 83.6605V79.5317H111.018C109.651 79.5317 109.087 79.8714 109.087 80.8102C109.087 81.5865 109.651 81.9488 110.729 81.9488L108.859 83.6617H109.651L111.41 81.9488H114.149V83.6617H114.722V83.6605ZM114.149 81.5403H110.839C109.959 81.5403 109.652 81.4252 109.652 80.8102C109.652 80.1693 109.974 79.9425 110.783 79.9425H114.149V81.5403Z" fill="#201C26"/>
<path fill-rule="evenodd" clip-rule="evenodd" d="M122.247 83.6602V81.7351H117.364V83.6602H116.796V79.5303H117.364V81.321H122.247V79.5303H122.818V83.6602H122.247Z" fill="#201C26"/>
<path fill-rule="evenodd" clip-rule="evenodd" d="M130.896 83.6605L128.048 79.5317H127.173L124.327 83.6605H124.955L125.662 82.6247H129.528L130.229 83.6605H130.896ZM129.231 82.2026H125.971L127.597 79.8274L129.231 82.2026Z" fill="#201C26"/>
<path fill-rule="evenodd" clip-rule="evenodd" d="M137.391 83.6602V81.9473H134.653L132.884 83.6602H132.104L133.961 81.9473C132.884 81.9473 132.327 81.5851 132.327 80.8087C132.327 79.8699 132.884 79.5303 134.252 79.5303H137.964V83.6591H137.391V83.6602ZM137.391 79.9421H134.026C133.219 79.9421 132.884 80.1678 132.884 80.8099C132.884 81.426 133.195 81.5399 134.08 81.5399H137.391V79.9421Z" fill="#201C26"/>
<path fill-rule="evenodd" clip-rule="evenodd" d="M148.512 83.6602H149.511L145.535 81.4959L149.422 79.5303H148.414L144.944 81.3018H144.02V79.5303H143.45V83.6602H144.02V81.7171H144.967L148.512 83.6602Z" fill="#201C26"/>
<path fill-rule="evenodd" clip-rule="evenodd" d="M156.909 82.2442C156.909 83.0522 156.64 83.2474 155.485 83.2474H153.08C152.009 83.2474 151.609 83.0398 151.609 82.2442V80.9263C151.609 80.1229 152.047 79.9051 153.08 79.9051H155.485C156.582 79.9051 156.909 80.1093 156.909 80.9263V82.2442ZM157.473 82.2442V80.9522C157.473 79.7516 156.818 79.4819 155.485 79.4819H153.085C151.524 79.4819 151.039 79.9039 151.039 80.9522V82.2442C151.039 83.3049 151.592 83.6604 153.085 83.6604H155.485C156.947 83.6604 157.473 83.42 157.473 82.2442Z" fill="#201C26"/>
<path fill-rule="evenodd" clip-rule="evenodd" d="M166.121 79.5303H167.344V83.6602H166.774V79.8654H166.457L163.49 83.6602H163.198L160.235 79.8654H159.914V83.6602H159.348V79.5303H160.564L163.351 83.052L166.121 79.5303Z" fill="#201C26"/>
<path fill-rule="evenodd" clip-rule="evenodd" d="M169.959 83.6602V79.9421H174.83V83.6602H175.405V79.5303H169.382V83.6602H169.959Z" fill="#201C26"/>
<path fill-rule="evenodd" clip-rule="evenodd" d="M182.818 83.6605L182.119 82.6247H178.253L177.536 83.6605H176.908L179.76 79.5317H180.625L183.473 83.6605H182.818ZM180.192 79.8262L178.555 82.2015H181.821L180.192 79.8262Z" fill="#201C26"/>
<path fill-rule="evenodd" clip-rule="evenodd" d="M191.124 83.6602V79.5303H190.558V81.321H185.682V79.5303H185.105V83.6602H185.682V81.7351H190.558V83.6602H191.124Z" fill="#201C26"/>
<path fill-rule="evenodd" clip-rule="evenodd" d="M199.101 83.6602V79.5303H197.991L193.646 83.3386H193.596V79.5303H193.034V83.6602H193.959L198.316 79.8496H198.526V83.6602H199.101Z" fill="#201C26"/>
<path fill-rule="evenodd" clip-rule="evenodd" d="M205.978 81.5403H202.66C201.775 81.5403 201.478 81.4252 201.478 80.8102C201.478 80.1693 201.791 79.9425 202.598 79.9425H205.978V81.5403ZM206.537 83.6605V79.5317H202.837C201.478 79.5317 200.907 79.8714 200.907 80.8102C200.907 81.5865 201.478 81.9488 202.553 81.9488L200.676 83.6617H201.478L203.228 81.9488H205.978V83.6617H206.537V83.6605Z" fill="#201C26"/>
<path fill-rule="evenodd" clip-rule="evenodd" d="M77.2113 89.7784C77.2113 89.7784 89.5904 89.6114 90.5822 90.2772C91.5728 90.9339 92.5624 91.6041 92.7279 92.921C92.8922 94.2457 92.0682 98.3757 88.9307 98.5438C85.7976 98.7085 82.1715 98.3757 82.1715 98.3757L82.0094 101.685L77.0582 101.52L77.2113 89.7784Z" fill="#201C26"/>
<path fill-rule="evenodd" clip-rule="evenodd" d="M82.3313 93.0837L82.1715 95.072C82.1715 95.072 86.1275 95.8957 86.9515 95.072C87.7767 94.2471 87.1148 92.9224 85.7987 92.9224C84.4816 92.9224 82.3313 93.0837 82.3313 93.0837Z" fill="white"/>
<path fill-rule="evenodd" clip-rule="evenodd" d="M92.729 92.9224C94.0552 91.4363 96.363 89.1186 101.634 89.447C106.915 89.7799 109.726 91.9238 109.726 94.4187C109.726 96.891 109.882 100.197 106.748 101.185C103.618 102.182 100.478 102.182 98.3354 101.857C96.1896 101.522 92.729 99.5337 92.2359 96.8921C91.7394 94.246 92.729 92.9224 92.729 92.9224Z" fill="#241C24"/>
<path fill-rule="evenodd" clip-rule="evenodd" d="M97.6813 96.0612C97.3796 93.9252 99.1606 92.5869 100.645 92.5869C102.128 92.5869 104.597 92.755 104.434 95.5681C104.273 98.3767 104.114 98.2108 102.63 98.7096C101.144 99.2049 98.1733 99.706 97.6813 96.0612Z" fill="white"/>
<path fill-rule="evenodd" clip-rule="evenodd" d="M127.367 94.4187C126.546 92.9224 124.737 90.106 121.926 89.9468C119.123 89.7798 115.326 89.447 113.513 90.1059C111.694 90.774 110.221 92.4214 109.887 93.9098C109.559 95.4026 109.219 98.71 111.37 100.197C113.512 101.686 116.985 102.847 120.279 102.182C123.572 101.522 126.709 100.197 127.205 97.3852C125.559 97.3852 121.6 97.3852 121.6 97.3852C121.6 97.3852 120.108 99.3723 118.3 99.2053C118.3 99.2053 116.639 99.7063 115.489 98.0555C114.341 96.3934 114.502 94.9073 115.653 93.4167C116.818 91.9238 119.946 92.4203 120.278 93.0838C120.605 93.7473 121.101 94.7369 121.101 94.7369L127.367 94.4187Z" fill="#241C24"/>
<path fill-rule="evenodd" clip-rule="evenodd" d="M126.877 90.1055H131.994V94.0798H137.099V89.7783H142.384V101.685H137.43V97.7166H132.159V101.685H126.711L126.877 90.1055Z" fill="#241C24"/>
<path fill-rule="evenodd" clip-rule="evenodd" d="M144.038 89.7783L158.72 89.9464V92.922H149.814V94.0798H157.238V97.3848H149.479V98.88H159.047V102.017H144.201L144.038 89.7783Z" fill="#241C24"/>
<path fill-rule="evenodd" clip-rule="evenodd" d="M166.306 89.7783H171.422C171.422 89.7783 171.095 90.6077 171.762 90.4441C172.411 90.2782 176.866 90.1044 178.191 91.7665C179.507 93.4163 180.006 95.567 178.681 97.0565C177.356 98.546 176.203 99.2049 175.387 99.2049C174.554 99.2049 171.762 99.3708 171.762 99.3708V102.017H166.306V99.2049C166.306 99.2049 162.84 99.0391 161.686 98.7096C160.537 98.3767 158.386 97.0565 158.386 94.908C158.386 92.7562 159.542 90.9349 161.198 90.7736C162.84 90.6088 165.976 90.6088 165.976 90.6088L166.306 89.7783Z" fill="#241C24"/>
<path fill-rule="evenodd" clip-rule="evenodd" d="M166.306 93.4162L166.142 95.8953C166.142 95.8953 163.504 96.2282 163.504 95.242C163.504 94.2456 164.002 93.2526 166.306 93.4162Z" fill="white"/>
<path fill-rule="evenodd" clip-rule="evenodd" d="M171.761 93.5814L171.917 95.8969C171.917 95.8969 173.402 96.5615 174.233 95.4026C175.048 94.246 173.564 93.4167 171.761 93.5814Z" fill="white"/>
<path fill-rule="evenodd" clip-rule="evenodd" d="M182.143 93.4164V102.182H187.42V93.4164H192.201L193.2 92.0973L191.716 90.2783H177.858C177.861 90.2783 177.195 92.9222 178.679 93.0835C180.162 93.2528 182.143 93.4164 182.143 93.4164Z" fill="#241C24"/>
<path fill-rule="evenodd" clip-rule="evenodd" d="M197.484 90.2783V93.5811C197.484 93.5811 203.759 93.2528 204.915 93.9095C206.069 94.573 207.223 95.5682 207.387 96.7192C207.551 97.8837 207.223 99.7061 206.069 100.693C204.915 101.685 203.599 102.345 202.268 102.345C200.952 102.345 192.708 102.345 192.708 102.345V90.4442L197.484 90.2783Z" fill="#241C24"/>
<path fill-rule="evenodd" clip-rule="evenodd" d="M197.987 97.0568V99.0394C197.987 99.0394 200.458 99.0394 201.281 99.0394C202.102 99.0394 203.262 97.2215 201.774 96.892C200.292 96.5603 197.987 97.0568 197.987 97.0568Z" fill="white"/>
<path fill-rule="evenodd" clip-rule="evenodd" d="M9.5736 35.2092H17.991V63.8197L9.5736 56.3745V35.2092Z" fill="#241C24"/>
<path fill-rule="evenodd" clip-rule="evenodd" d="M19.6425 25.7849H27.7256V73.0816L19.6425 65.2991V25.7849Z" fill="#241C24"/>
<path fill-rule="evenodd" clip-rule="evenodd" d="M29.3782 16.3606H37.6279V61.1714H29.3782V16.3606Z" fill="#241C24"/>
<path fill-rule="evenodd" clip-rule="evenodd" d="M39.2716 6.93506H47.8511V51.9118H39.2716V6.93506Z" fill="#241C24"/>
<path fill-rule="evenodd" clip-rule="evenodd" d="M49.0061 15.8596H57.2581V61.1715H49.0061V15.8596Z" fill="#241C24"/>
<path fill-rule="evenodd" clip-rule="evenodd" d="M59.2383 25.6111H67.3214V65.1354L59.2383 73.0816V25.6111Z" fill="#241C24"/>
<path fill-rule="evenodd" clip-rule="evenodd" d="M68.8018 35.0422H77.0582V55.7156L68.8018 63.8197V35.0422Z" fill="#241C24"/>
<path fill-rule="evenodd" clip-rule="evenodd" d="M29.3782 62.1714H37.6279V103.664H29.3782V62.1714Z" fill="#B3B31C"/>
<path fill-rule="evenodd" clip-rule="evenodd" d="M39.2716 53.2412H47.3524V103.664H39.2716V53.2412Z" fill="#B3B31C"/>
<path fill-rule="evenodd" clip-rule="evenodd" d="M49.0061 62.3291H57.2581V103.663H49.0061V62.3291Z" fill="#B3B31C"/>
</g>
<defs>
<clipPath id="clip0_4_180">
<rect width="217" height="112" fill="white"/>
</clipPath>
</defs>
</svg>
