<svg width="202" height="56" viewBox="0 0 202 56" fill="none" xmlns="http://www.w3.org/2000/svg">
<path d="M23.2159 11.7618C26.7753 20.8476 20.9719 26.6796 15.191 32.5211C9.81095 38.4894 5.07187 44.6934 14.6035 55.8584C11.043 46.7737 16.8476 40.9406 22.6237 35.1051C28.0085 29.1236 32.7476 22.928 23.2159 11.7618Z" fill="#EF3D42"/>
<path d="M14.6035 0.141926C18.1688 9.23137 12.3678 15.0598 6.58218 20.8977C1.20329 26.8708 -3.5346 33.0747 6.00065 44.2397C2.43771 35.1479 8.24115 29.3208 14.0208 23.4829C19.4033 17.5086 24.1364 11.3069 14.6035 0.141926Z" fill="#00B274"/>
<path d="M160.878 36.1255V54.6968H168.963V47.8983H177.848V43.8332H168.963V40.1905H186.588V54.6968H194.674V40.1905H202V36.1255H160.878Z" fill="#00B274"/>
<path d="M143.529 50.6664V47.4472H154.073V43.3786H143.529V40.1905H157.072V36.1255H135.444V54.6968H157.239V50.6664H143.529Z" fill="#00B274"/>
<path d="M58.2483 36.1255H35.842V40.1905H43.0023V54.6968H51.0879V40.1905H58.2483V36.1255Z" fill="#EF3D42"/>
<path d="M64.3704 47.6601L68.1117 40.4716L71.6925 47.6601H64.3704ZM74.2125 36.1255H65.5454L55.4536 54.6968H60.7088L62.3678 51.5086H73.6999L75.3542 54.6968H84.3091L74.2125 36.1255Z" fill="#EF3D42"/>
<path d="M125.522 36.1255V45.4099L112.59 36.1255H106.315V54.6968H111.849V44.4792L125.128 54.6968H131.055V36.1255H125.522Z" fill="#00B274"/>
<path d="M103.567 36.1255H81.6309V40.1905H88.79V54.6968H96.8768V40.1905H103.567V36.1255Z" fill="#EF3D42"/>
</svg>
